<svg width="150" height="169" viewBox="0 0 150 169" fill="none" xmlns="http://www.w3.org/2000/svg">
<path d="M74.9997 168.365C116.145 168.365 149.5 165.602 149.5 162.194C149.5 158.786 116.145 156.023 74.9997 156.023C33.8544 156.023 0.499451 158.786 0.499451 162.194C0.499451 165.602 33.8544 168.365 74.9997 168.365Z" fill="black" fill-opacity="0.1"/>
<path d="M136.054 164.003H115.737C115.737 164.003 74.9461 154.081 70.1012 130.798C65.2564 107.515 91.0436 115.171 98.6235 130.407C106.203 145.642 118.394 154.549 121.91 154.315C129.099 153.846 134.413 153.456 136.054 164.003Z" fill="#5B4949"/>
<path d="M115.737 164.003H136.054C134.335 153.456 129.099 153.924 121.91 154.315C120.738 159.237 111.908 158.769 110.657 162.519C113.783 163.535 115.737 164.003 115.737 164.003Z" fill="#EAD0C0"/>
<path d="M27.4351 83.6845L26.7318 84.3095C26.5756 84.4658 26.4974 84.5439 26.4974 84.5439L26.263 84.7002L26.0286 84.8565C25.9504 84.9346 25.8723 85.0127 25.8723 85.0127L25.7941 85.0908C25.716 85.0908 25.716 85.169 25.716 85.169C25.6378 85.2471 25.6379 85.169 25.6379 85.169L25.5597 85.0908L25.2471 84.8565L24.7001 84.3877L23.6061 83.3719C22.9028 82.6688 22.1995 81.9656 21.4962 81.1843C20.793 80.4811 20.2459 79.6217 19.5427 78.8404C19.2301 78.4497 18.9176 78.059 18.605 77.6684L17.7454 76.4183C15.4792 73.0587 13.682 69.4646 12.3535 65.6362C9.69667 58.0575 8.75894 49.8537 9.46223 41.8062C10.1655 33.7587 12.5879 25.7893 16.8077 18.5231C18.9175 14.9291 21.5744 11.5695 24.7001 8.60051C26.263 7.11602 27.9821 5.78779 29.7794 4.53769C30.2483 4.22516 30.7171 3.99077 31.186 3.67824L32.5926 2.81882C33.5303 2.2719 34.6243 1.88123 35.562 1.41245C38.5314 0.084217 41.9697 1.33432 43.3763 4.30331C44.7047 7.27229 43.4545 10.7101 40.4851 12.1164H40.4069L40.0943 12.2727C34.6243 14.6947 29.8576 18.9919 26.3411 24.4611C24.5438 27.1957 23.0591 30.1647 21.887 33.2899C20.7148 36.4152 19.8552 39.6967 19.3082 43.0563C18.2142 49.6975 18.2924 56.7293 19.9334 63.2923C20.7148 66.5738 21.9651 69.8553 23.528 72.8243L24.1531 73.9181C24.3876 74.3088 24.5438 74.6994 24.7783 75.0119C25.2471 75.7151 25.716 76.4964 26.1848 77.1996C26.7318 77.9028 27.2007 78.606 27.7477 79.231L28.6073 80.2467L28.998 80.7155L29.2324 80.9499L29.3105 81.028C29.3105 81.028 29.3887 81.028 29.3105 81.1062C29.3105 81.1062 29.3106 81.1843 29.2324 81.1843L29.1543 81.2624C29.1543 81.2624 29.0761 81.3405 28.998 81.4187L28.8417 81.6531L28.6854 81.8875C28.6073 81.9656 28.5291 82.0437 28.451 82.2L27.8259 82.9032C27.8259 83.2938 27.5914 83.5282 27.4351 83.6845Z" fill="#7C6666"/>
<path d="M29.4668 81.1843L29.2324 80.8717L28.8417 80.4029L27.9821 79.3872C27.4351 78.6841 26.9663 77.9809 26.4193 77.3558C25.9504 76.6527 25.4815 75.9495 25.0127 75.1681C24.7782 74.8556 24.5438 74.465 24.3875 74.0743L23.7624 72.9805C22.5902 70.7147 21.6525 68.3708 20.8711 65.9487C15.4011 58.2918 11.9628 47.4316 11.9628 35.3213C11.9628 33.2117 12.0409 31.1022 12.2753 29.0708C10.8688 33.2899 10.0092 37.5871 9.6185 41.8843C8.91521 49.9318 9.77475 58.1356 12.5098 65.7143C13.8382 69.5427 15.6355 73.1367 17.9017 76.4964L18.7612 77.7465C19.0738 78.1371 19.3082 78.6059 19.6989 78.9185C20.3241 79.6998 20.9492 80.4811 21.6525 81.2624C22.3558 81.9656 22.981 82.7469 23.7624 83.4501L24.8564 84.4658L25.4034 84.9345L25.716 85.1689L25.7941 85.2471C25.7941 85.2471 25.7941 85.3252 25.8723 85.2471C25.8723 85.2471 25.9504 85.2471 25.9504 85.1689L26.0286 85.0908C26.0286 85.0908 26.1067 85.0127 26.1848 84.9345L26.4193 84.7783L26.6537 84.622C26.7318 84.5439 26.81 84.4658 26.8881 84.3876L27.5914 83.7626C27.7477 83.6063 27.9821 83.3719 28.1384 83.2157L28.7636 82.5125C28.9198 82.3562 28.998 82.2781 28.998 82.1999L29.1543 81.9656L29.3105 81.7312C29.3887 81.653 29.3887 81.5749 29.4668 81.5749L29.545 81.4968C29.545 81.4186 29.6231 81.4186 29.6231 81.4186C29.4668 81.1842 29.4668 81.1843 29.4668 81.1843Z" fill="#665252"/>
<path d="M62.287 164.003H45.0955C45.0955 164.003 18.1361 127.125 23.9187 105.249C29.7013 83.3719 60.5678 112.984 48.4556 144.705C48.4556 144.705 52.0502 154.237 54.4727 158.065C54.5508 158.065 60.4115 157.518 62.287 164.003Z" fill="#5B4949"/>
<path d="M43.22 89.7005C30.4045 73.9962 13.6037 80.5592 9.85288 84.9345C6.02386 89.3099 17.589 129.313 22.6683 136.189C27.7476 143.064 41.0319 149.705 63.8497 152.127C82.2134 154.081 96.8261 151.58 99.6393 147.049C103.937 140.173 94.0911 123.297 81.9008 110.874C64.553 107.202 55.254 104.545 43.22 89.7005Z" fill="#725E5E"/>
<path d="M43.22 89.7005C30.4045 73.9962 13.6037 80.5592 9.85287 84.9345C9.07143 85.8721 8.91514 88.2942 9.30585 91.6538C12.1971 98.7637 18.9956 106.655 28.529 112.827C44.4702 123.297 61.818 125.172 67.2099 116.89C68.929 114.312 69.2416 111.108 68.382 107.514C58.8486 104.545 51.7376 100.17 43.22 89.7005Z" fill="#7C6666"/>
<path d="M81.8228 110.874C76.8216 109.78 72.5238 108.843 68.6166 107.671C70.7265 116.89 68.9292 125.563 62.9121 130.563C52.9098 138.923 35.0151 134.079 22.981 119.703C11.9629 106.577 9.38415 90.1693 8.13386 91.5757C4.30485 95.951 17.5892 129.313 22.6685 136.267C27.7478 143.142 41.0321 149.783 63.8499 152.205C82.2135 154.159 96.8262 151.659 99.6394 147.127C103.859 140.173 94.0912 123.297 81.8228 110.874Z" fill="#665252"/>
<path d="M30.7171 139.861C38.6096 126.656 31.9674 102.436 26.4974 98.6074L24.9345 134.235L30.7171 139.861Z" fill="#665252"/>
<path d="M99.7956 164.003H72.2111C72.2111 164.003 43.8452 148.768 41.9697 125.563C40.0943 102.28 57.2858 115.171 62.9121 130.407C68.5384 145.642 81.1194 154.628 84.3233 155.721C88.6993 157.05 99.4831 153.456 99.7956 164.003Z" fill="#8C7474"/>
<path d="M77.6811 151.19C73.1488 146.893 66.1159 137.517 62.9902 129.313C57.3639 114.078 39.2347 101.811 41.1102 125.094C41.8916 134.86 48.2993 143.689 54.3945 150.096C58.3016 148.143 68.8509 148.221 77.6811 151.19Z" fill="#725E5E"/>
<path d="M70.5702 162.987C71.6642 163.612 72.2893 164.003 72.2893 164.003H99.8739C99.5613 153.455 88.6994 157.049 84.4015 155.721C78.3845 155.799 71.8205 159.237 70.5702 162.987Z" fill="#EAD0C0"/>
<path d="M103.859 103.139C102.453 103.373 97.7641 110.874 98.3892 115.249L112.768 120.172C111.595 112.515 106.125 102.67 103.859 103.139Z" fill="#AF9797"/>
<path d="M104.484 104.311C103.703 104.467 102.296 111.655 103.547 115.64L111.361 118.609C109.876 112.749 105.657 103.998 104.484 104.311Z" fill="#564141"/>
<path d="M104.641 105.092C104.015 105.249 103.625 111.968 104.875 115.64L110.345 117.75C108.782 112.437 105.578 104.858 104.641 105.092Z" fill="#E06161"/>
<path d="M107.376 114.077C107.532 115.015 107.61 115.874 107.766 116.734L110.345 117.75C108.704 112.437 105.578 104.858 104.641 105.092C104.641 105.092 104.562 105.092 104.562 105.17C105.657 106.889 106.75 110.249 107.376 114.077Z" fill="#BA4F4F"/>
<path d="M58.5362 115.171C50.3311 119.781 55.3323 126.5 55.3323 126.5C55.3323 126.5 58.1455 122.516 63.5373 119.937L58.5362 115.171Z" fill="#7C6666"/>
<path d="M58.0672 112.202C51.0343 113.14 49.6277 120.25 49.6277 120.25C49.6277 120.25 53.4567 117.984 57.9109 117.749L58.0672 112.202Z" fill="#7C6666"/>
<path d="M54.0037 109.624C46.9708 110.562 45.5642 117.672 45.5642 117.672C45.5642 117.672 49.3932 115.406 53.8474 115.171L54.0037 109.624Z" fill="#7C6666"/>
<path d="M47.2834 107.046C41.3445 112.124 43.0637 118.375 43.0637 118.375C43.0637 118.375 45.5642 114.312 49.3932 111.343L47.2834 107.046Z" fill="#7C6666"/>
<path d="M54.5508 106.186C54.5508 107.749 62.1306 117.203 63.8498 122.359L77.3685 110.249C65.6471 101.889 54.5508 104.702 54.5508 106.186Z" fill="#AF9797"/>
<path d="M56.895 107.436C56.9732 108.765 63.4591 116.5 65.1001 120.797L75.4149 110.327C65.647 103.53 56.8169 106.108 56.895 107.436Z" fill="#564141"/>
<path d="M57.6766 107.905C57.7547 109.077 64.0843 116.109 65.569 120.093L74.6336 110.874C65.6471 104.624 57.5984 106.733 57.6766 107.905Z" fill="#E06161"/>
<path d="M64.3187 108.843C67.6007 109.936 70.1794 111.812 71.6641 113.843L74.5555 110.874C65.569 104.624 57.5984 106.733 57.5984 107.905C59.7083 107.749 61.9744 107.983 64.3187 108.843Z" fill="#BA4F4F"/>
<path d="M107.532 148.611C111.361 146.346 112.299 143.377 112.299 143.377L120.035 138.142L119.331 137.126C119.331 137.126 123.16 136.97 123.16 136.423C123.16 135.876 120.347 134.157 120.347 134.157C120.347 134.157 123.864 134.704 123.864 134.157C123.864 133.61 115.581 125.406 115.581 125.406C115.581 125.406 117.534 125.094 117.378 124.547C117.222 124 112.299 117.75 112.299 117.75C112.299 117.75 93.8568 106.342 89.6371 106.03C85.4173 105.717 90.7311 107.983 90.7311 107.983C90.7311 107.983 84.4015 105.874 83.1512 106.577C81.9009 107.28 84.8703 108.14 84.8703 108.14C84.8703 108.14 77.3686 108.53 75.8839 109.858C74.321 111.108 63.4591 118.062 60.2553 128.766L61.8181 128.219C61.8181 128.219 58.8487 134.313 58.6142 136.267C58.3017 138.22 61.2711 134.86 61.2711 134.86C61.2711 134.86 58.6142 137.829 59.005 138.767C59.3957 139.783 63.2247 138.767 63.7717 139.47C64.3187 140.173 59.3957 142.283 60.4116 143.533C61.4274 144.783 68.304 144.08 68.304 144.08C68.304 144.08 66.1941 144.939 66.3504 145.33C66.5067 145.721 82.1353 150.565 94.5601 149.861C94.5601 149.861 91.7469 152.127 92.7628 152.83C93.7786 153.534 101.671 149.627 101.671 149.627C101.671 149.627 100.577 151.346 102.062 151.424C103.625 151.58 106.125 146.893 106.75 146.893C107.063 147.049 106.594 149.158 107.532 148.611Z" fill="#8C7474"/>
<path d="M80.5724 108.765C78.6189 108.999 76.509 109.468 75.8057 110.015C74.2428 111.265 63.3809 118.218 60.1771 128.922L61.7399 128.375C61.7399 128.375 58.7705 134.47 58.5361 136.423C58.3016 138.22 60.7241 135.563 61.193 135.095C60.8022 135.485 58.6142 138.064 59.0049 139.001C59.3956 140.017 63.2247 139.001 63.7717 139.704C64.3187 140.408 59.3957 142.517 60.4115 143.767C61.4274 145.017 92.0595 133.532 93.7005 124.781C94.4038 120.015 88.7775 112.28 80.5724 108.765Z" fill="#7C6666"/>
<path d="M96.9042 136.345C94.3255 137.595 89.3244 134.626 89.4025 133.376C89.8714 129.547 99.0923 129.235 99.0923 129.235L101.984 132.594C101.984 132.516 98.3108 135.642 96.9042 136.345Z" fill="#FFEFDD"/>
<path d="M95.2632 134.86C92.9189 134.86 90.8872 133.766 89.8713 132.204C89.6369 132.516 89.4806 132.907 89.4806 133.298C89.3243 134.548 94.3255 137.595 96.9824 136.267C98.389 135.563 102.062 132.438 102.062 132.438L101.827 132.126C99.8737 133.766 97.2168 134.86 95.2632 134.86Z" fill="#DBBA9A"/>
<path d="M106.36 136.188C108.938 137.439 111.83 133.141 111.986 131.891C112.299 129.704 104.328 128.688 104.328 128.688L101.28 131.501C101.202 131.422 104.953 135.485 106.36 136.188Z" fill="#FFEFDD"/>
<path d="M110.892 133.688C108.626 135.563 105.266 135.642 104.015 132.985C103.312 131.579 103.468 130.016 104.172 128.688L101.202 131.422C101.202 131.422 104.953 135.485 106.282 136.188C108.157 137.126 110.189 135.095 111.205 133.454C111.126 133.532 111.048 133.61 110.892 133.688Z" fill="#DBBA9A"/>
<path d="M39.3129 164.003H21.5744C21.5744 164.003 -4.91609 126.5 0.866504 104.155C6.64909 81.7312 13.8383 81.4968 17.0421 83.2939C20.246 85.0909 43.6889 113.687 24.2313 144.705C24.2313 144.705 27.0444 152.284 29.3106 156.268C29.3106 156.268 38.1408 154.002 39.3129 164.003Z" fill="#7C6666"/>
<path d="M29.3106 156.268C27.0444 152.362 24.2313 144.705 24.2313 144.705C27.0444 140.251 28.9199 135.876 30.1702 131.579C27.2007 138.533 22.5903 142.83 17.511 142.517C8.44637 141.97 1.17905 127.204 1.17905 109.546C1.17905 106.499 1.41352 103.53 1.80423 100.795C1.49166 101.811 1.17908 102.983 0.866504 104.155C-4.91609 126.579 21.5744 164.003 21.5744 164.003H39.3129C38.1408 154.003 29.3106 156.268 29.3106 156.268Z" fill="#725E5E"/>
<path d="M24.2313 144.705C24.622 144.002 25.0127 143.377 25.4034 142.673L16.7296 145.799C16.7296 145.799 20.4023 145.017 25.4034 147.752C24.7001 145.955 24.2313 144.705 24.2313 144.705Z" fill="#665252"/>
<path d="M21.5744 164.003H39.3129C38.2189 154.002 29.3106 156.268 29.3106 156.268C25.4034 157.127 22.1996 159.784 20.9493 163.222C21.34 163.69 21.5744 164.003 21.5744 164.003Z" fill="#EAD0C0"/>
<path d="M115.502 125.484C115.502 125.484 117.456 125.172 117.3 124.625C117.143 124.078 112.22 117.828 112.22 117.828C112.22 117.828 98.8578 109.546 92.2938 106.967C89.715 111.89 96.5916 121.109 108.157 127.985C113.549 131.188 119.019 133.376 123.785 134.313V134.235C123.864 133.688 115.502 125.484 115.502 125.484Z" fill="#7C6666"/>
<path d="M111.83 124.625C111.673 124.625 111.595 124.547 111.439 124.469C111.361 124.39 108.626 122.515 104.953 124.156C104.641 124.312 104.25 124.156 104.172 123.844C104.015 123.531 104.172 123.14 104.484 123.062C108.86 121.109 112.064 123.453 112.142 123.531C112.455 123.765 112.455 124.156 112.299 124.39C112.142 124.547 111.986 124.625 111.83 124.625Z" fill="#564141"/>
<path d="M77.8375 127.594C77.6812 127.594 77.4467 127.516 77.3686 127.36C77.1342 127.047 77.2123 126.657 77.5249 126.5C82.1353 123.141 86.9021 123.922 87.0584 123.922C87.3709 124 87.6053 124.313 87.5272 124.625C87.4491 124.938 87.1365 125.172 86.8239 125.094C86.7458 125.094 82.3698 124.313 78.2282 127.438C78.0719 127.516 77.9938 127.594 77.8375 127.594Z" fill="#564141"/>
<path d="M103 132.907C102.453 133.298 101.827 133.063 101.827 133.063C101.827 133.063 97.3733 129.938 97.6077 129.001C97.764 128.376 105.735 127.438 106.203 128.688C106.36 129.157 103 132.907 103 132.907Z" fill="#D85D5D"/>
<path d="M102.922 132.282C102.453 132.595 101.984 132.438 101.984 132.438C101.984 132.438 98.3111 129.86 98.5456 129.157C98.7018 128.688 105.188 127.907 105.578 128.844C105.657 129.157 102.922 132.282 102.922 132.282Z" fill="#EF7878"/>
<path d="M99.0924 130.407C100.655 129.391 101.437 129.548 101.749 130.095C102.14 130.641 101.124 132.126 101.124 132.126L99.0924 130.407Z" fill="#D85D5D"/>
<path d="M104.015 129.86C103.703 130.407 103.937 131.813 103.937 131.813L105.188 130.094C104.719 129.157 104.25 129.313 104.015 129.86Z" fill="#D85D5D"/>
<path d="M98.8579 138.064C103.39 139.861 104.719 137.673 104.172 136.423C103.312 138.142 101.28 138.298 98.8579 138.064Z" fill="#564141"/>
<path d="M123.864 134.235C123.864 134.157 123.707 134.001 123.473 133.688C122.926 133.61 122.535 133.532 122.535 133.532C122.535 133.532 123.16 133.845 123.785 134.313C123.785 134.313 123.864 134.313 123.864 134.235Z" fill="#665252"/>
<path d="M117.378 124.703C117.378 124.625 117.378 124.625 117.378 124.625C117.3 124.625 117.3 124.625 117.3 124.625C117.3 124.625 117.3 124.703 117.378 124.703Z" fill="#665252"/>
<path d="M121.676 136.579L121.988 136.97C122.613 136.892 123.16 136.735 123.16 136.501C122.379 136.579 121.676 136.579 121.676 136.579Z" fill="#665252"/>
<path d="M60.8804 135.251C61.3493 132.907 63.6155 127.516 63.6155 127.516L62.1307 128.063C63.5373 122.203 67.2101 117.437 70.5702 114.077C66.8193 117.359 62.1307 122.437 60.1771 128.844L61.74 128.297C61.74 128.297 58.7706 134.391 58.5362 136.345C58.2236 137.986 60.1772 136.032 60.8804 135.251Z" fill="#665252"/>
<path d="M69.0073 145.095C68.851 144.627 70.8827 143.767 70.8827 143.767C70.8827 143.767 64.0061 144.47 62.9902 143.22C61.8962 141.892 66.7411 139.783 66.116 139.079C65.4908 138.376 61.7399 139.392 61.2711 138.376C60.8022 137.439 62.9121 134.86 63.2247 134.391C62.834 134.86 60.4897 137.595 60.646 135.798C60.646 135.642 60.6459 135.485 60.7241 135.329C60.0208 136.11 58.3798 138.142 58.7705 138.923C59.1612 139.939 62.9903 138.923 63.5373 139.626C64.0843 140.329 59.1612 142.439 60.1771 143.689C61.1929 144.939 68.0695 144.236 68.0695 144.236C68.0695 144.236 65.9597 145.095 66.116 145.486C66.1941 145.72 69.6324 146.814 74.4773 147.908C71.1953 146.58 69.0854 145.252 69.0073 145.095Z" fill="#665252"/>
<path d="M59.3955 135.563C60.8802 135.642 61.1147 136.657 60.7239 138.064C63.3808 135.876 65.5688 131.032 65.5688 131.032C65.5688 131.032 63.3808 133.22 59.3955 135.563Z" fill="#665252"/>
</svg>
