<svg width="125" height="163" viewBox="0 0 125 163" fill="none" xmlns="http://www.w3.org/2000/svg">
<path d="M51 162.16C22.8335 162.16 0 160.062 0 157.474C0 154.886 22.8335 152.788 51 152.788C79.1665 152.788 102 154.886 102 157.474C102 160.062 79.1665 162.16 51 162.16Z" fill="black" fill-opacity="0.1"/>
<path d="M31.4808 157.895H85.6688C85.6688 157.895 92.1975 157.301 92.1975 156.647C92.1975 155.994 89.5267 155.102 89.5267 155.102C89.5267 155.102 91.9008 152.251 91.9008 151.419C91.9008 150.587 88.9332 150.468 88.9332 150.468C88.9332 150.468 92.1975 143.517 91.782 142.685C91.3666 141.853 87.2713 143.101 87.2713 143.101C87.2713 143.101 90.8918 120.94 77.1815 102.165C63.4713 83.3907 36.585 101.749 35.398 105.849C33.9735 110.78 31.4214 124.802 30.7092 135.971C30.0563 145.299 31.4808 157.895 31.4808 157.895Z" fill="#EA8C3F"/>
<path d="M33.6767 104.482C32.0742 123.851 39.2557 152.251 39.2557 152.251C39.2557 152.251 36.3475 153.498 37.5345 157.895H50.3545C50.3545 157.895 50.0577 148.567 49.5829 144.289C49.1675 140.546 48.93 114.345 48.93 114.345L33.6767 104.482Z" fill="#EA8C3F"/>
<path d="M80.0302 105.434C80.9798 124.446 72.7893 152.311 72.7893 152.311C72.7893 152.311 75.6382 153.558 74.3324 157.836H61.5125C61.5125 157.836 62.106 148.686 62.7589 144.468C63.3524 140.784 64.4801 115.118 64.4801 115.118L80.0302 105.434Z" fill="#EA8C3F"/>
<path d="M64.3615 101.81C70.5934 108.82 68.9909 117.079 68.9909 117.079L67.6852 116.425C67.6852 116.425 67.4478 121.951 65.3705 124.624L64.2428 123.139C64.2428 123.139 64.3022 128.011 59.8508 132.051L58.7825 131.338C58.1296 133.893 57.2987 135.438 55.9929 137.695L52.3725 132.17L52.3131 134.487C52.3131 134.487 47.6837 130.447 47.0308 127.06L46.2593 128.843C46.2593 128.843 42.4014 124.149 42.8169 120.05L40.977 121.238C40.977 121.238 39.0184 112.861 43.8259 106.147C48.5146 99.3737 62.4623 99.6708 64.3615 101.81Z" fill="#EDB38C"/>
<path d="M50.948 124.684C55.3994 124.684 59.3759 126.525 62.0468 129.437C61.4532 130.268 60.741 131.16 59.7914 131.991L58.7231 131.278C58.0702 133.833 57.2393 135.378 55.9335 137.636L52.3131 132.11L52.2538 134.427C52.2538 134.427 47.6243 130.387 46.9714 127.001L46.1999 128.783C46.1999 128.783 45.3096 127.714 44.4193 126.11C46.4373 125.159 48.6333 124.684 50.948 124.684Z" fill="#FFE4CD"/>
<path d="M51.8383 121.535C61.8687 118.683 70.356 112.504 70.356 112.504L70.2373 114.049C70.2373 114.049 80.2677 107.81 81.6922 104.008L82.5231 105.137C82.5231 105.137 83.9475 101.869 83.9475 100.502L85.6688 101.75C85.6688 101.75 86.9151 91.4121 77.8937 78.6977C68.8722 65.9833 52.9066 61.5867 44.3007 66.2804C35.6947 70.9146 29.344 81.9654 29.344 81.9654L30.5904 81.6684C30.5904 81.6684 25.0707 89.1544 24.2398 94.0857L25.3675 93.9669C25.3675 93.9669 25.7829 101.453 32.7271 109.652L33.3206 107.81C33.3206 107.81 37.4159 114.999 43.173 118.98V117.019L51.8383 121.535Z" fill="#FFECD7"/>
<path d="M52.9658 111.732C64.8955 112.623 75.9349 108.701 83.6506 101.81C83.2352 103.295 82.4636 105.137 82.4636 105.137L81.6327 104.008C80.2082 107.81 70.1778 114.049 70.1778 114.049L70.2965 112.504C70.2965 112.504 61.8092 118.742 51.7788 121.535L43.0541 117.019V118.98C37.2377 114.999 33.2017 107.81 33.2017 107.81L32.6082 109.652C29.7593 106.266 27.9788 102.998 26.9105 100.324C33.4985 106.681 42.6386 110.9 52.9658 111.732Z" fill="#FAD7BD"/>
<path d="M85.6094 99.9082C85.6094 101.096 85.55 101.75 85.55 101.75L84.541 100.978C84.8971 100.621 85.2533 100.265 85.6094 99.9082Z" fill="#FAD7BD"/>
<path d="M25.4863 95.3335C25.3082 94.4423 25.3082 93.967 25.3082 93.967L24.1805 94.0858C25.0114 89.1545 30.5311 81.6685 30.5311 81.6685L29.2848 81.9655C29.2848 81.9655 35.6354 70.9147 44.2414 66.2804C46.0813 65.2704 48.2773 64.6763 50.6514 64.498C49.7017 74.2418 47.5057 83.6885 46.3187 85.8868C44.8349 88.8574 38.0095 93.3134 25.4863 95.3335Z" fill="#F9A55A"/>
<path d="M56.171 87.7879C54.0937 85.0549 55.7555 72.8158 59.376 65.5674C66.0234 67.4686 72.9081 71.9246 77.775 78.7571C82.8792 85.8867 84.6598 92.3033 85.3126 96.5216C76.4692 96.5216 58.2483 90.5803 56.171 87.7879Z" fill="#F9A55A"/>
<path d="M78.9028 81.0144C81.4549 65.4481 75.6384 50.6543 73.9766 49.2284C72.2554 47.8024 65.4893 68.8941 65.4893 68.8941L78.9028 81.0144Z" fill="#F9A55A"/>
<path d="M34.9824 75.5486C33.1425 58.2593 34.4482 45.9608 36.2881 45.0102C38.0687 44.0596 49.2861 66.9931 49.2861 66.9931L34.9824 75.5486Z" fill="#F9A55A"/>
<path d="M36.1694 72.994C34.8637 59.2696 35.8133 49.5258 37.1191 48.7534C38.4248 47.9811 46.4373 66.1615 46.4373 66.1615L36.1694 72.994Z" fill="#E06332"/>
<path d="M39.3151 152.251C39.3151 152.251 35.5166 137.397 34.0329 121.831C34.567 121.475 35.1012 121.237 35.754 121.178C41.0363 120.465 46.9122 130.743 49.761 144.883C50.2359 149.339 50.4733 157.895 50.4733 157.895H37.6533C36.4069 153.498 39.3151 152.251 39.3151 152.251Z" fill="#F9A55A"/>
<path d="M84.5409 133.417C87.2711 134.071 86.7369 145.359 83.4726 155.638L73.5608 156.885C75.4007 142.032 81.8107 132.764 84.5409 133.417Z" fill="#F9A55A"/>
<path d="M72.9082 157.895H87.8055C87.8055 157.895 88.0429 153.023 84.3631 152.132C80.6833 151.181 77.1816 152.369 75.5791 153.379C73.9172 154.389 72.9082 157.895 72.9082 157.895Z" fill="#FAD7BD"/>
<path d="M77.5969 121.059C78.131 121.238 78.6652 121.475 79.14 121.832C77.1814 137.339 72.73 152.311 72.73 152.311C72.73 152.311 75.5789 153.558 74.2732 157.836H61.4532C61.4532 157.836 62.0467 148.686 62.6996 144.468C62.937 142.923 63.2931 137.576 63.5899 131.813C67.9819 124.208 73.3829 119.752 77.5969 121.059Z" fill="#F9A55A"/>
<path d="M73.6797 152.013C74.8074 152.429 76.8847 153.558 75.4602 157.895H60.8004C60.8004 157.895 60.8004 153.142 61.9874 151.597C63.5899 150.765 67.8632 149.993 73.6797 152.013Z" fill="#FFE4CD"/>
<path d="M38.2467 152.013C37.119 152.429 34.9824 153.558 36.4662 157.895H51.2448C51.2448 157.895 51.2448 153.142 50.0577 151.597C48.3959 150.765 44.1225 149.993 38.2467 152.013Z" fill="#FFE4CD"/>
<path d="M51.1854 100.443C51.1854 100.443 51.2447 100.443 51.1854 100.443C51.4821 100.384 51.6008 100.205 51.6008 99.9677C51.6008 99.9083 50.8293 94.3829 50.8293 92.244C50.8293 92.0064 50.6512 91.8281 50.4138 91.8281C50.1764 91.8281 49.9983 92.0064 49.9983 92.244C49.9983 94.3829 50.7699 99.8489 50.7699 100.087C50.8293 100.265 51.0073 100.443 51.1854 100.443Z" fill="#683838"/>
<path d="M54.509 91.1146C53.322 92.184 50.8292 93.7288 50.4138 93.7288C49.9983 93.7288 45.725 92.0058 46.0218 91.7681C48.6332 89.6887 54.509 91.1146 54.509 91.1146Z" fill="#683838"/>
<path d="M61.2159 88.0256C60.6586 88.0256 60.2069 86.7222 60.2069 85.1144C60.2069 83.5065 60.6586 82.2031 61.2159 82.2031C61.7731 82.2031 62.2249 83.5065 62.2249 85.1144C62.2249 86.7222 61.7731 88.0256 61.2159 88.0256Z" fill="#683838"/>
<path d="M37.4752 85.1144C37.4752 83.0349 37.7126 82.2031 38.4842 82.2031C39.2558 82.2031 39.4932 83.0349 39.4932 85.1144C39.4932 87.1938 39.2558 88.0256 38.4842 88.0256C37.7126 88.085 37.4752 87.1938 37.4752 85.1144Z" fill="#683838"/>
<path d="M59.8508 99.373C60.1476 100.858 60.385 107.929 57.2393 108.107C54.0937 108.285 52.9067 99.9078 52.9067 99.9078L59.8508 99.373Z" fill="#D86D55"/>
<path d="M48.5739 100.621C54.4497 100.621 61.1564 99.6705 61.8687 99.1358C62.8183 98.4228 63.4711 97.0563 64.1834 94.3233C64.2427 94.0856 64.124 93.848 63.8866 93.7886C63.6492 93.7292 63.4118 93.848 63.3524 94.0856C62.6996 96.581 62.1061 97.8881 61.3345 98.4228C60.3849 99.0169 46.4372 100.799 41.4517 98.9575C40.7395 98.7199 39.5524 96.6404 39.0183 95.4521C38.8995 95.2145 38.6622 95.1551 38.4841 95.2739C38.3061 95.3927 38.1874 95.6304 38.3061 95.8086C38.6028 96.4028 39.9679 99.314 41.2143 99.7893C42.9355 100.383 45.6657 100.621 48.5739 100.621Z" fill="#683838"/>
<path d="M11.9541 144.171C11.4199 143.399 11.9541 142.151 12.9037 141.913C12.6069 141.141 13.5566 140.191 14.3281 140.428C13.972 139.715 14.5655 138.705 15.3965 138.646C15.3371 138.052 15.5152 137.458 15.9306 137.101C16.3461 136.685 17.1177 136.626 17.4738 137.101C17.3551 136.388 17.7705 135.616 18.4234 135.378C19.0763 135.14 19.9072 135.378 20.3226 135.972C20.382 135.437 21.2129 135.259 21.5097 135.675C21.1536 134.19 22.5187 132.645 24.0024 132.407C25.5456 132.17 27.0887 132.883 28.2758 133.833C29.7596 133.417 31.4807 134.368 31.8962 135.853C32.6678 135.378 33.6768 135.497 34.3296 136.091C34.9825 136.685 35.2199 137.695 34.8045 138.468C35.3386 138.23 36.1102 138.468 36.407 139.002C36.7037 139.537 36.585 140.25 36.1102 140.666C36.5257 140.666 37.0598 140.725 37.3566 141.022C37.594 141.26 37.6533 141.676 37.4753 141.913C38.3656 141.319 39.6713 141.438 40.3835 142.211C41.2144 143.042 41.2144 144.528 40.3835 145.359L12.8443 147.142C12.0728 147.38 11.1825 146.904 10.9451 146.191C10.767 145.359 11.1825 144.468 11.9541 144.171Z" fill="#683838"/>
<path d="M3.05129 158.014H46.556C46.556 158.014 43.7071 146.013 42.5795 145.181C41.4518 144.349 13.3785 144.112 11.1231 144.468C8.80838 144.825 3.05129 158.014 3.05129 158.014Z" fill="#D83F55"/>
<path d="M21.0347 155.935C31.1245 155.935 39.7898 152.43 43.5883 147.38C44.8941 151.063 46.4966 158.015 46.4966 158.015H3.05117C3.05117 158.015 4.11951 155.579 5.54395 152.727C9.75792 154.747 15.1589 155.935 21.0347 155.935Z" fill="#BA2542"/>
<path d="M28.2756 147.974C23.0966 147.974 18.8981 147.415 18.8981 146.726C18.8981 146.037 23.0966 145.479 28.2756 145.479C33.4547 145.479 37.6532 146.037 37.6532 146.726C37.6532 147.415 33.4547 147.974 28.2756 147.974Z" fill="#FF8D93"/>
<path d="M13.7346 147.974C11.9645 147.974 10.5296 147.415 10.5296 146.726C10.5296 146.037 11.9645 145.479 13.7346 145.479C15.5046 145.479 16.9396 146.037 16.9396 146.726C16.9396 147.415 15.5046 147.974 13.7346 147.974Z" fill="#FF8D93"/>
<path d="M24.0024 132.467C25.5455 132.229 27.0887 132.942 28.2757 133.893C29.7595 133.477 31.4807 134.428 31.8961 135.913C32.6677 135.438 33.6767 135.556 34.3296 136.151C34.6263 136.388 34.8044 136.745 34.9231 137.101C34.567 137.279 34.1515 137.279 33.8548 137.101C34.1515 137.755 33.9141 138.587 33.3206 139.002C32.7271 139.418 31.8368 139.359 31.362 138.824C31.4213 139.359 30.6498 139.715 30.2937 139.359C31.0059 140.725 29.9969 142.508 28.5725 143.102C27.148 143.696 25.4862 143.34 24.0618 142.627C22.6967 143.34 20.7974 142.805 20.0852 141.498C19.4323 142.092 18.4233 142.27 17.6517 141.854C16.8802 141.438 16.4647 140.488 16.6428 139.656C16.168 140.012 15.3964 139.953 14.9809 139.478C14.8622 139.359 14.8029 139.24 14.7435 139.062C14.9216 138.884 15.159 138.765 15.4558 138.765C15.3964 138.171 15.5744 137.576 15.9899 137.22C16.4054 136.804 17.177 136.745 17.5331 137.22C17.4144 136.507 17.8298 135.735 18.4827 135.497C19.1356 135.259 19.9665 135.497 20.3819 136.091C20.4413 135.556 21.2722 135.378 21.569 135.794C21.0942 134.249 22.4592 132.705 24.0024 132.467Z" fill="#894949"/>
<path d="M77.478 78.1034C79.3773 65.8049 75.0446 54.4569 73.7982 53.4469C72.5518 52.4369 67.507 69.3102 67.507 69.3102L77.478 78.1034Z" fill="#E06332"/>
<path d="M67.2103 82.0247C63.3525 81.9059 60.8003 79.1134 60.8003 79.1134L61.5126 77.3311L67.2103 82.0247Z" fill="#EA8C3F"/>
<path d="M33.3206 82.3808C37.1785 82.2026 39.7306 79.3508 39.7306 79.3508L38.959 77.5684L33.3206 82.3808Z" fill="#EA8C3F"/>
<path d="M67.4478 69.3104C67.4478 69.3104 71.4244 55.9424 73.205 53.7441C72.1366 57.2495 71.4837 61.6461 71.4837 66.3397C71.4837 68.7757 71.6618 71.1522 71.9586 73.3505L67.4478 69.3104Z" fill="#CC512B"/>
<path d="M36.8223 49.0508C36.5849 51.2491 36.4661 53.5662 36.4661 56.0021C36.4661 61.884 37.2377 67.2312 38.5435 71.4495L36.1694 72.9943C34.923 60.2205 35.6352 50.8926 36.8223 49.0508Z" fill="#CC512B"/>
<path d="M57.5605 54.5473C56.8869 55.0701 57.2863 56.1382 57.527 56.8936C57.0227 56.8292 56.4865 56.8714 56.0068 57.1076C55.532 57.347 55.1333 57.7932 55.0535 58.3035C54.9714 58.8273 55.2159 59.3229 55.5642 59.691C56.4333 60.6287 57.9734 60.8847 59.2246 60.3015C59.3082 60.9552 59.7242 61.5319 60.3144 61.8094C60.9046 62.0869 61.6482 62.0441 62.2588 61.7128C62.6497 61.5014 62.9895 61.1596 63.1237 60.7445C63.2629 60.3326 63.1612 59.847 62.8322 59.6039C63.5337 59.6313 64.2822 59.3069 64.7408 58.7347C65.1944 58.1594 65.324 57.3441 65.0054 56.7405C64.6868 56.137 63.9254 55.8085 63.2309 56.0255C63.2626 53.6106 60.7809 55.3374 60.7809 55.3374C60.6172 55.3063 59.8455 52.7755 57.5605 54.5473Z" fill="white"/>
<path d="M71.83 0.521032C68.0004 0.610667 63.9979 2.16438 61.4212 5.06493C58.8583 7.9783 58.0172 12.2647 59.8287 15.3723C54.1883 14.9424 48.5404 20.0933 48.1123 25.5325C46.7458 43.0405 63.0646 47.3787 68.7596 43.3174C68.9492 56.1272 86.569 59.7423 92.2874 59.8315C97.992 59.9079 104.172 56.2951 105.784 50.9337C108.431 55.2547 115.632 56.0275 119.778 52.4316C123.923 48.8356 123.89 41.8684 119.703 38.8749C124.826 37.1191 126.374 30.1567 123.697 25.945C121.005 21.7474 115.635 19.8891 110.455 19.0866C109.703 14.0141 106.34 9.49829 101.6 7.25928C99.1809 6.12192 96.4386 5.56621 93.6547 5.63257C91.2667 5.6799 85.9704 6.97227 85.9704 6.97227C85.9704 6.97227 82.1241 3.90853 80.1582 2.72244C77.7462 1.26123 74.8118 0.445168 71.83 0.521032Z" fill="white"/>
<path d="M73.7281 20.4122C72.3543 19.8193 71.8273 18.5355 72.1344 16.2194C72.1365 16.1243 72.1179 16.0682 72.0786 16.0513C72.0394 16.0344 72.0394 16.0344 72.0187 16.0735C71.3331 16.6418 68.9954 18.5136 66.6404 17.4971C65.6984 17.0906 65.5351 16.3959 66.1544 15.2228C66.8976 13.8151 69.6709 11.027 70.1251 10.1667C70.249 9.93213 70.1725 9.8031 69.9763 9.71839C69.6623 9.58287 69.4826 9.64935 69.2078 9.53077C68.9723 9.42912 68.9372 9.22189 69.0404 9.02638C69.3707 8.40074 71.0332 7.53387 72.2892 8.07598C72.9172 8.34703 72.6634 9.1017 72.3743 9.64914C71.2802 11.7216 69.7848 12.1805 68.4842 14.6439C68.2778 15.035 67.9474 15.6606 68.4184 15.8639C69.9099 16.5076 73.2034 12.5517 73.8332 11.8152C74.2999 11.2964 74.6261 10.8611 75.2561 11.037C75.4131 11.1048 75.63 11.1504 75.787 11.2181C76.0618 11.3367 76.1775 11.4827 76.033 11.7564C75.7439 12.3038 74.8292 13.3974 74.3131 14.375C73.6318 15.6654 72.9156 17.6609 74.6612 18.4623C76.8074 19.0526 79.1617 17.332 80.132 15.4941C80.7307 14.3602 80.6581 13.1285 79.0695 12.3948C78.9125 12.3271 78.8381 12.1029 78.9 11.9856C79.0858 11.6337 80.2755 11.571 81.1783 11.9606C82.9053 12.706 83.1846 14.459 82.173 16.3751C81.3245 18.0734 77.1821 21.903 73.7281 20.4122Z" fill="#D33529"/>
<path d="M80.4915 21.5047C80.4915 21.5047 80.3471 21.7786 81.3716 22.2217C82.2385 22.5965 82.7432 22.1901 83.1766 22.3776C83.4131 22.4798 83.4694 22.6483 83.3868 22.8048C82.9742 23.5874 81.2856 23.5779 80.0246 23.0326C78.4878 22.368 78.2287 21.3911 78.662 20.5694C79.3428 19.2782 81.7461 18.2993 83.8346 19.2025C84.8985 19.6626 85.1069 20.1851 84.88 20.6155C84.4467 21.4372 82.2891 22.0418 80.4915 21.5047ZM82.8478 19.8809C82.375 19.6764 81.0991 19.8935 80.8309 20.4022C80.7896 20.4804 80.8084 20.5366 80.8872 20.5707C81.4389 20.8092 82.8536 20.6042 83.0805 20.1737C83.1424 20.0564 83.0054 19.9491 82.8478 19.8809Z" fill="#D33529"/>
<path d="M89.3696 22.5036C88.9618 23.0005 88.6144 23.4754 88.3878 23.9067C88.0171 24.6123 87.9896 25.1302 88.4674 25.3382C88.7462 25.4595 88.9878 25.372 89.3064 25.5107C89.5055 25.5974 89.5041 25.6931 89.4011 25.8891C89.1128 26.4379 87.9909 26.4313 87.314 26.1366C86.0398 25.582 86.0371 24.3766 86.7168 23.0829C86.9022 22.7301 87.1686 22.3162 87.4542 21.9589L87.3745 21.9242C87.0162 21.7682 86.9997 21.5202 87.0821 21.3634C87.1645 21.2066 87.3059 21.1237 87.4652 21.193L87.9842 21.3226C89.9794 19.1083 93.132 17.2052 94.8442 17.9505C96.0388 18.4705 96.2681 19.2447 95.8562 20.0287C95.1531 21.5531 92.3286 22.9246 89.3696 22.5036ZM93.7293 18.8621C93.3709 18.7061 91.6284 20.067 90.1441 21.5884C92.1488 21.4977 93.4052 20.5032 93.7965 19.7584C94.0629 19.3445 94.0478 19.0007 93.7293 18.8621Z" fill="#D33529"/>
<path d="M94.9847 26.7657C94.2663 27.9441 92.0608 28.1923 90.4893 27.5137C89.1928 26.9539 88.9318 26.1689 89.324 25.4258C90.0464 24.057 93.0242 22.8938 95.4601 23.9456C95.578 23.9965 95.6958 24.0474 95.853 24.1152C96.0101 24.1831 96.0061 24.3734 95.9029 24.569C95.7378 24.8819 95.2937 25.2663 95.0766 25.2206C93.561 24.7103 91.5413 24.6065 90.9634 25.7015C90.8395 25.9362 90.8335 26.2217 91.2264 26.3914C92.8372 27.0869 94.3082 25.9453 94.6384 25.3196C95.8956 25.8624 95.5813 25.7267 96.7267 25.9331C96.7453 25.9892 96.704 26.0674 96.6627 26.1456C96.3138 26.7153 95.4002 26.801 94.9847 26.7657Z" fill="#D33529"/>
<path d="M99.0135 27.8662C99.0961 27.7097 99.1599 27.497 99.203 27.3235C99.2687 27.0156 98.8974 26.7109 99.0418 26.4371C99.145 26.2414 99.5201 26.3556 99.9533 26.5428C100.78 26.9004 101.108 27.3786 100.613 28.3176C99.8911 29.6869 97.9087 30.5114 95.9395 29.6601C94.7186 29.1323 94.8312 28.4603 95.2645 27.6387C95.4708 27.2475 95.7372 26.8341 95.9435 26.4429C96.2118 25.9343 96.42 25.4477 96.3113 24.9203C96.5701 24.8881 97.0258 24.9409 97.4196 25.1112C97.8135 25.2815 98.0854 25.5912 97.8791 25.9824C97.714 26.2954 97.1269 26.8584 96.8174 27.4453C96.5698 27.9148 96.5416 28.335 97.0536 28.5563C98.0195 28.9258 98.6834 28.4922 99.0135 27.8662Z" fill="#D33529"/>
<path d="M101.651 30.575C101.651 30.575 101.507 30.8489 102.532 31.292C103.398 31.6669 103.903 31.2604 104.337 31.4479C104.573 31.5501 104.629 31.7186 104.547 31.8751C104.134 32.6577 102.445 32.6482 101.185 32.1029C99.6477 31.4383 99.3886 30.4614 99.8219 29.6397C100.503 28.3485 102.906 27.3697 104.995 28.2728C106.058 28.7329 106.267 29.2554 106.04 29.6859C105.607 30.5075 103.449 31.1121 101.651 30.575ZM103.968 28.9342C103.495 28.7297 102.22 28.9468 101.951 29.4554C101.91 29.5337 101.929 29.5899 102.008 29.6239C102.559 29.8625 103.974 29.6574 104.201 29.227C104.302 29.1267 104.165 29.0194 103.968 28.9342Z" fill="#D33529"/>
<path d="M79.4105 39.0009C78.0369 38.4081 77.5098 37.1244 77.8166 34.8082C77.8187 34.7131 77.8001 34.657 77.7608 34.6401C77.7216 34.6231 77.7216 34.6232 77.7009 34.6623C77.0155 35.2306 74.6783 37.1027 72.3235 36.0865C71.3816 35.68 71.2181 34.9853 71.8373 33.8121C72.5803 32.4044 75.353 29.616 75.807 28.7556C75.9309 28.521 75.8544 28.392 75.6582 28.3073C75.3442 28.1718 75.1645 28.2383 74.8898 28.1197C74.6543 28.0181 74.6192 27.8109 74.7223 27.6154C75.0526 26.9897 76.7148 26.1227 77.9707 26.6646C78.5986 26.9356 78.3449 27.6903 78.0559 28.2378C76.9621 30.3104 75.467 30.7694 74.1667 33.233C73.9604 33.6241 73.6301 34.2498 74.1011 34.453C75.5924 35.0966 78.8851 31.1403 79.5148 30.4038C79.9814 29.885 80.3075 29.4496 80.9375 29.6254C81.0945 29.6932 81.3113 29.7388 81.4683 29.8065C81.743 29.9251 81.8588 30.071 81.7143 30.3448C81.4253 30.8922 80.5108 31.9859 79.9949 32.9636C79.3138 34.254 78.5978 36.2496 80.3433 37.0509C82.4893 37.641 84.8431 35.9201 85.8131 34.0822C86.4117 32.9481 86.3389 31.7164 84.7505 30.9829C84.5935 30.9152 84.5191 30.691 84.581 30.5737C84.7667 30.2217 85.9563 30.159 86.859 30.5485C88.5858 31.2938 88.8652 33.0468 87.854 34.9629C87.0057 36.6614 82.9034 40.5084 79.4105 39.0009Z" fill="#D33529"/>
<path d="M86.2124 40.1112C86.2124 40.1112 86.068 40.3851 87.0924 40.828C87.9592 41.2028 88.4638 40.7963 88.8972 40.9837C89.1336 41.0859 89.1899 41.2544 89.1074 41.411C88.6949 42.1936 87.0065 42.1843 85.7456 41.6391C84.209 40.9747 83.9499 39.9978 84.383 39.176C85.0637 37.8847 87.4666 36.9056 89.5548 37.8085C90.6186 38.2685 90.827 38.7911 90.6001 39.2215C90.167 40.0433 88.0097 40.6481 86.2124 40.1112ZM88.5682 38.4871C88.0954 38.2826 86.8198 38.4999 86.5516 39.0086C86.5104 39.0868 86.5291 39.143 86.6079 39.1771C87.1596 39.4156 88.574 39.2103 88.8009 38.7799C88.8628 38.6625 88.7258 38.5552 88.5682 38.4871Z" fill="#D33529"/>
<path d="M93.6566 44.9346C91.8077 44.1358 91.4111 43.1479 91.8443 42.3263C92.5045 41.0745 95.0006 40.2796 97.0462 41.1634C97.8723 41.5203 97.9414 42.0304 97.7144 42.4608C97.4668 42.9302 96.8091 43.0783 96.5337 42.9594C96.219 42.8234 96.328 42.3421 95.9739 42.1891C94.9511 41.7473 93.5738 42.1609 93.2643 42.7477C93.0993 43.0607 93.2302 43.4535 93.9776 43.7764C95.7479 44.5412 96.2933 44.0563 96.8834 44.3113C97.1194 44.4132 97.1137 44.6989 96.9899 44.9337C96.5998 45.5817 94.9548 45.4954 93.6566 44.9346Z" fill="#D33529"/>
<path d="M101.556 48.0364C101.203 47.8843 100.933 47.5757 100.983 47.1171C101.003 47.078 100.964 47.0611 100.925 47.0442C100.729 46.9597 99.3343 47.4142 97.6883 46.7042C96.591 46.2309 96.387 45.6149 96.7173 44.9893C97.3985 43.6991 100.669 42.5176 102.785 43.4304C103.216 43.6163 103.27 43.8794 103.146 44.114C102.939 44.505 102.18 44.8495 101.71 44.6467C100.769 44.241 98.801 44.6881 98.5533 45.1572C98.4707 45.3136 98.5655 45.4985 98.9182 45.6507C99.5845 45.938 101.19 45.8143 102.644 45.3376C102.824 45.2711 103.022 45.2605 103.139 45.3112C103.296 45.3788 103.333 45.4908 103.189 45.7645C103.044 46.0382 102.78 46.3562 102.635 46.6299C102.512 46.8645 102.528 47.0156 102.763 47.117C102.998 47.2184 103.394 47.1973 103.708 47.3325C103.943 47.4339 103.939 47.6241 103.856 47.7805C103.592 48.0986 102.34 48.3745 101.556 48.0364Z" fill="#D33529"/>
<path d="M107.17 50.5368C106.466 50.2336 106.654 49.7868 107.109 48.9269C107.192 48.7706 107.214 48.6365 107.019 48.5522C106.784 48.4512 104.696 49.1346 104.457 49.2236C104.358 49.229 104.14 49.2789 103.905 49.1778C103.671 49.0768 103.42 48.8248 103.564 48.5511C103.75 48.1994 104.754 47.4803 105.023 46.9721C105.147 46.7376 105.094 46.4748 104.781 46.3401C104.507 46.2221 104.13 46.2997 103.974 46.2323C103.779 46.1481 103.785 45.863 103.889 45.6676C103.889 45.6676 104.405 44.6904 106.047 45.3979C106.75 45.7011 106.801 46.0589 106.615 46.4107C106.409 46.8015 105.947 47.1304 105.864 47.2868C105.844 47.3259 105.841 47.4209 105.88 47.4377C106.076 47.5219 107.963 47.0393 108.783 47.393C109.174 47.5615 109.503 47.8472 109.276 48.2771C109.049 48.7071 108.729 48.8574 108.523 49.2482C108.461 49.3655 108.376 49.6169 108.649 49.7348C109.119 49.9369 110.109 49.7879 110.344 49.889C110.5 49.9563 110.516 50.1073 110.433 50.2636C110.183 50.8277 108.264 51.0084 107.17 50.5368Z" fill="#D33529"/>
</svg>
