<svg width="185" height="104" viewBox="0 0 185 104" fill="none" xmlns="http://www.w3.org/2000/svg">
<path d="M94.0294 103.65C144.269 103.65 184.996 102.005 184.996 99.9751C184.996 97.9456 144.269 96.3004 94.0294 96.3004C43.79 96.3004 3.06299 97.9456 3.06299 99.9751C3.06299 102.005 43.79 103.65 94.0294 103.65Z" fill="black" fill-opacity="0.1"/>
<path d="M118.296 99.6337C112.496 99.158 112.544 97.8737 113.019 96.3991C113.495 94.9244 114.921 95.2098 115.444 94.8293C116.014 94.4487 112.781 93.6401 113.399 91.88C114.017 90.12 116.252 90.9762 116.252 90.9762C116.252 90.9762 112.781 88.3124 114.208 86.1718C115.634 84.0312 119.912 86.9329 122.051 90.9762C124.19 94.972 118.296 99.6337 118.296 99.6337Z" fill="#FAD7BD"/>
<path d="M171.061 100.252H119.817C119.817 100.252 117.583 98.3494 117.725 97.2078C117.868 96.1137 117.583 90.5006 117.583 90.5006C117.583 90.5006 116.775 91.7849 116.632 90.6433C116.489 89.5492 118.533 80.749 118.533 80.749C118.533 80.749 117.107 82.0334 117.107 80.8917C117.107 79.7976 120.625 72.2818 120.625 72.2818C120.625 72.2818 119.342 73.0904 119.342 71.9488C119.342 70.8547 122.669 64.1475 122.669 64.1475C121.576 63.3388 124.57 58.8674 124.57 58.8674L161.839 52.3505C161.839 52.3505 170.49 65.0989 169.539 74.8029L168.446 74.3272C168.446 74.3272 171.298 80.9393 171.156 87.5513L170.062 87.0756C171.488 90.453 171.726 93.545 171.584 96.6369L170.49 96.1613C170.87 97.5408 171.203 98.5397 171.061 100.252Z" fill="#EA8C3F"/>
<path d="M147.15 82.2712C143.727 79.9403 143.727 76.7057 143.727 76.7057L143.252 77.8949C143.252 77.8949 141.351 75.5164 141.351 72.7099L140.495 73.8991C140.495 73.8991 133.555 68.9044 134.268 62.5302L157.037 62.6729C157.037 62.6729 156.419 69.3801 154.47 72.2342L153.662 71.1401C153.662 71.1401 153.567 73.8515 152.236 75.5164L151.618 74.6602C151.618 74.6602 151.286 77.9425 150.43 79.1317L149.717 78.4181C149.146 80.3685 148.243 81.6052 147.15 82.2712Z" fill="#FAD7BD"/>
<path d="M138.736 76.3727C139.782 78.3705 141.731 82.842 142.349 84.4593C142.967 86.0291 146.152 95.305 146.152 95.305C146.152 95.305 136.977 97.3029 136.93 95.8758C135.409 92.4509 124.333 72.9477 124.665 65.0513C124.713 62.6253 134.886 69.0946 138.736 76.3727Z" fill="#F9A55A"/>
<path d="M165.689 76.8008C165.404 78.2754 162.694 95.4001 162.694 95.4001C162.694 95.4001 154.09 97.8261 154.375 96.3991C155.469 90.2627 155.611 77.5143 155.754 75.897C155.992 72.9953 162.837 62.435 165.689 64.195C167.4 65.194 165.832 76.1348 165.689 76.8008Z" fill="#F9A55A"/>
<path d="M143.918 65.6697C131.891 65.2892 126.947 60.4847 126.947 60.4847C126.947 60.4847 125.379 61.5312 124.808 61.2458C123.049 60.2469 122.574 55.8705 122.574 55.8705C122.574 55.8705 120.673 56.7268 120.435 56.2987C120.245 55.8705 120.007 53.8727 120.007 53.8727C120.007 53.8727 118.819 55.3473 118.438 54.824C118.011 54.3008 119.199 50.1623 119.199 50.1623C119.199 50.1623 118.438 50.4953 118.153 49.8293C117.82 49.2109 120.482 43.9784 120.482 43.9784C120.482 43.9784 119.009 44.5968 118.676 44.0735C118.343 43.5502 121.338 38.4604 121.338 38.4604C121.338 38.4604 120.055 38.7934 120.055 37.842C120.055 36.8906 124.428 30.4213 124.428 30.4213L139.497 20.0989C139.497 20.0989 140.352 21.4784 140.78 21.3832C141.208 21.2881 141.208 19.3853 141.731 19.1475C142.254 18.9572 143.632 20.0989 143.632 20.0989C143.632 20.0989 145.106 17.5301 145.867 17.435C146.627 17.3399 146.294 18.8145 146.294 18.8145C146.294 18.8145 148.434 17.3399 149.289 17.3399C150.145 17.3399 149.717 18.8145 149.717 18.8145C149.717 18.8145 151.856 18.3864 152.284 18.4815C152.712 18.5767 152.284 20.2891 152.284 20.2891C152.284 20.2891 156.847 21.1454 159.604 22.1919C162.362 23.2384 165.974 26.5682 166.307 27.3769C166.64 28.2331 165.451 28.7564 165.451 28.7564C165.451 28.7564 167.591 31.3251 168.018 32.2765C168.446 33.2278 167.4 33.1327 167.4 33.1327C167.4 33.1327 169.112 34.9403 169.73 35.9868C170.348 37.0333 170.062 37.8896 170.062 37.8896C170.062 37.8896 171.631 41.0767 171.631 41.5999C171.631 42.1232 170.68 41.5048 170.68 41.5048C170.68 41.5048 172.915 45.8811 172.677 46.8325C172.487 47.7839 171.726 47.1655 171.726 47.1655C171.726 47.1655 172.154 50.971 171.631 51.2088C171.108 51.3991 170.585 50.6856 170.585 50.6856C170.585 50.6856 169.73 54.824 169.017 55.5851C168.256 56.3462 167.971 55.2522 167.971 55.2522C167.971 55.2522 165.071 63.8145 162.789 60.7701C161.126 62.6729 157.37 66.0978 143.918 65.6697Z" fill="#F9A55A"/>
<path d="M143.918 65.6697C131.891 65.2892 126.947 60.4847 126.947 60.4847C126.947 60.4847 125.379 61.5312 124.808 61.2458C123.049 60.2469 122.574 55.8705 122.574 55.8705C122.574 55.8705 120.673 56.7268 120.435 56.2987C120.245 55.8705 120.007 53.8727 120.007 53.8727C120.007 53.8727 118.819 55.3473 118.438 54.824C118.011 54.3008 119.199 50.1623 119.199 50.1623C119.199 50.1623 118.438 50.4953 118.153 49.8293C117.82 49.2109 120.482 43.9784 120.482 43.9784C120.482 43.9784 119.009 44.5968 118.676 44.0735C118.343 43.5502 121.338 38.4604 121.338 38.4604C121.338 38.4604 120.055 38.7934 120.055 37.842C120.055 36.8906 124.428 30.4213 124.428 30.4213L139.497 20.0989C139.497 20.0989 140.352 21.4784 140.78 21.3832C141.208 21.2881 141.208 19.3853 141.731 19.1475C142.254 18.9572 143.632 20.0989 143.632 20.0989C143.632 20.0989 145.106 17.5301 145.867 17.435C146.627 17.3399 146.294 18.8145 146.294 18.8145C146.294 18.8145 148.434 17.3399 149.289 17.3399C150.145 17.3399 149.717 18.8145 149.717 18.8145C149.717 18.8145 151.856 18.3864 152.284 18.4815C152.712 18.5767 152.284 20.2891 152.284 20.2891C152.284 20.2891 156.847 21.1454 159.604 22.1919C162.362 23.2384 165.974 26.5682 166.307 27.3769C166.64 28.2331 165.451 28.7564 165.451 28.7564C165.451 28.7564 167.591 31.3251 168.018 32.2765C168.446 33.2278 167.4 33.1327 167.4 33.1327C167.4 33.1327 169.112 34.9403 169.73 35.9868C170.348 37.0333 170.062 37.8896 170.062 37.8896C170.062 37.8896 171.631 41.0767 171.631 41.5999C171.631 42.1232 170.68 41.5048 170.68 41.5048C170.68 41.5048 172.915 45.8811 172.677 46.8325C172.487 47.7839 171.726 47.1655 171.726 47.1655C171.726 47.1655 172.154 50.971 171.631 51.2088C171.108 51.3991 170.585 50.6856 170.585 50.6856C170.585 50.6856 169.73 54.824 169.017 55.5851C168.256 56.3462 167.971 55.2522 167.971 55.2522C167.971 55.2522 165.071 63.8145 162.789 60.7701C161.126 62.6729 157.37 66.0978 143.918 65.6697Z" fill="#FFECD7"/>
<path d="M170.538 41.5523C170.538 41.5523 171.488 42.1707 171.488 41.6475C171.488 41.1242 169.92 37.9371 169.92 37.9371C169.92 37.9371 170.253 37.0809 169.587 36.0344C168.969 34.9879 167.258 33.1802 167.258 33.1802C167.258 33.1802 168.304 33.2754 167.876 32.324C167.448 31.3726 165.309 28.8039 165.309 28.8039C165.309 28.8039 166.497 28.2807 166.164 27.4244C166.022 26.9963 165.024 25.9498 163.74 24.9033C163.55 25.379 162.98 25.6644 162.98 25.6644C162.98 25.6644 164.833 28.138 165.214 29.0418C165.594 29.9456 164.643 29.8504 164.643 29.8504C164.643 29.8504 166.164 31.6105 166.687 32.6094C167.21 33.6084 166.973 34.4646 166.973 34.4646C166.973 34.4646 168.399 37.5566 168.399 38.0323C168.399 38.5555 167.543 37.9371 167.543 37.9371C167.543 37.9371 169.492 42.1232 169.302 43.0745C169.112 43.9784 168.446 43.36 168.446 43.36C168.446 43.36 168.826 47.0227 168.351 47.2606C167.876 47.4509 167.4 46.7373 167.4 46.7373C167.4 46.7373 166.64 50.7331 165.974 51.4466C165.309 52.1602 165.024 51.1612 165.024 51.1612C165.024 51.1612 162.457 59.3906 160.413 56.4889C159.082 58.3441 155.802 61.6263 143.918 61.2458C133.27 60.8652 128.944 56.2511 128.944 56.2511C128.944 56.2511 127.565 57.25 127.09 56.9646C125.521 56.0132 125.141 51.7796 125.141 51.7796C125.141 51.7796 123.43 52.5883 123.287 52.2077C123.144 51.8272 122.907 49.8769 122.907 49.8769C122.907 49.8769 121.861 51.3039 121.481 50.7807C121.1 50.2574 122.146 46.2616 122.146 46.2616C122.146 46.2616 121.481 46.5471 121.195 45.9762C120.91 45.3578 123.24 40.3631 123.24 40.3631C123.24 40.3631 121.909 40.9815 121.623 40.4583C121.338 39.935 123.953 35.0354 123.953 35.0354C123.953 35.0354 122.812 35.3208 122.812 34.417C122.812 33.8938 124.048 31.658 125.093 29.8504L124.19 30.4688C124.19 30.4688 119.817 36.9382 119.817 37.8896C119.817 38.8409 121.1 38.5079 121.1 38.5079C121.1 38.5079 118.106 43.5978 118.438 44.1211C118.771 44.6443 120.245 44.0259 120.245 44.0259C120.245 44.0259 117.583 49.2109 117.916 49.8769C118.248 50.4953 118.961 50.2099 118.961 50.2099C118.961 50.2099 117.773 54.3483 118.201 54.8716C118.629 55.3948 119.769 53.9202 119.769 53.9202C119.769 53.9202 119.96 55.9181 120.197 56.3462C120.387 56.7743 122.336 55.9181 122.336 55.9181C122.336 55.9181 122.764 60.342 124.571 61.2934C125.093 61.5788 126.71 60.5323 126.71 60.5323C126.71 60.5323 131.653 65.3367 143.68 65.7173C157.18 66.1454 160.888 62.7204 162.362 60.7701C164.691 63.8145 167.543 55.2521 167.543 55.2521C167.543 55.2521 167.876 56.2986 168.589 55.5851C169.349 54.824 170.158 50.6855 170.158 50.6855C170.158 50.6855 170.68 51.4466 171.203 51.2088C171.726 51.0185 171.298 47.1655 171.298 47.1655C171.298 47.1655 172.059 47.7838 172.249 46.8325C172.772 45.8811 170.538 41.5523 170.538 41.5523Z" fill="#FAD7BD"/>
<path d="M144.963 29.0894C145.344 25.5693 145.296 22.1919 144.203 19.0999C143.87 19.6232 143.585 20.0513 143.585 20.0513C143.585 20.0513 142.206 18.8621 141.683 19.0999C141.16 19.2902 141.16 21.2405 140.733 21.3357C140.305 21.4308 139.449 20.0513 139.449 20.0513L124.38 30.3737C124.38 30.3737 120.007 36.8431 120.007 37.7944C120.007 38.7458 121.29 38.4128 121.29 38.4128C121.29 38.4128 119.484 41.5048 118.819 43.1221C119.294 43.4551 119.817 43.693 120.34 43.9784C120.387 43.9784 120.435 43.9308 120.435 43.9308C120.435 43.9308 120.435 43.9308 120.387 43.9784C121.148 44.3114 121.956 44.5968 122.812 44.8346C131.748 47.0228 143.68 40.4107 144.963 29.0894Z" fill="#F9A55A"/>
<path d="M170.775 40.5534C170.87 40.5059 171.013 40.5059 171.108 40.4583C170.633 39.3642 169.92 37.9371 169.92 37.9371C169.92 37.9371 170.252 37.0809 169.587 36.0344C168.969 34.9879 167.258 33.1803 167.258 33.1803C167.258 33.1803 168.303 33.2754 167.876 32.324C167.448 31.3727 165.309 28.8039 165.309 28.8039C165.309 28.8039 166.497 28.2807 166.164 27.4245C165.831 26.5682 162.219 23.286 159.462 22.2395C156.705 21.193 152.141 20.3367 152.141 20.3367C152.141 20.3367 152.569 18.6242 152.141 18.5291C151.713 18.434 149.574 18.8621 149.574 18.8621C149.574 18.8621 150.002 17.3875 149.146 17.3875C149.099 19.5756 144.155 48.1169 170.775 40.5534Z" fill="#F9A55A"/>
<path d="M114.113 10.2997C114.113 10.9181 121.29 18.0534 121.29 18.0534C121.29 18.0534 124.856 26.9012 124.713 30.897L139.592 20.5745C132.034 9.77644 114.113 9.68131 114.113 10.2997Z" fill="#F9A55A"/>
<path d="M169.397 0.0248565C162.932 0.785956 150.715 12.9636 150.525 19.4805L163.693 24.9984C162.932 15.1993 170.158 -0.070281 169.397 0.0248565Z" fill="#F9A55A"/>
<path d="M146.58 45.9287C143.395 45.786 140.685 43.2648 140.495 42.8843C140.305 42.4562 140.59 41.6475 140.733 41.2669C140.78 41.1242 140.97 41.0291 141.113 41.1242C141.256 41.1718 141.351 41.3621 141.303 41.5524C141.113 41.9805 141.018 42.5037 141.065 42.6464C141.303 43.027 144.108 45.453 147.15 45.3103C150.145 45.1676 152.997 43.1697 153.33 42.694C153.33 42.5513 153.14 42.1232 152.949 41.7426C152.854 41.5999 152.902 41.4096 153.092 41.3145C153.235 41.2194 153.425 41.3145 153.52 41.4572C153.663 41.7426 154.043 42.5037 153.948 42.8843C153.805 43.4075 150.573 45.7384 147.245 45.9287C147.007 45.9287 146.77 45.9287 146.58 45.9287Z" fill="#683838"/>
<path d="M147.15 45.6909C146.96 45.6909 146.817 45.5481 146.817 45.3579L146.912 40.601C146.912 40.4107 147.055 40.3156 147.245 40.3156C147.435 40.3156 147.578 40.4583 147.53 40.6486L147.435 45.4054C147.483 45.5481 147.34 45.6909 147.15 45.6909Z" fill="#683838"/>
<path d="M147.15 41.0767C145.724 40.9339 144.25 40.0301 144.345 39.602C144.441 39.1739 150.192 38.9836 150.62 39.5069C151.048 40.0777 148.006 41.1718 147.15 41.0767Z" fill="#683838"/>
<path d="M136.645 34.6549C136.835 36.5101 137.025 38.0799 138.023 38.0799C139.021 38.0799 139.021 33.7511 139.021 33.7511L136.645 34.6549Z" fill="#683838"/>
<path d="M158.891 33.8938C158.749 35.8441 158.559 37.509 157.656 37.509C156.752 37.509 156.752 32.8949 156.752 32.8949L158.891 33.8938Z" fill="#683838"/>
<path d="M133.46 63.9096C139.925 70.2363 154.994 69.6655 158.987 63.5767C153.425 65.9075 146.247 67.0492 133.46 63.9096Z" fill="#B2344C"/>
<path d="M147.673 67.9055H146.104V70.2363H147.673V67.9055Z" fill="#B2344C"/>
<path d="M147.572 76.1866C149.384 75.8786 150.607 74.1801 150.304 72.3929C150 70.6057 148.285 69.4066 146.474 69.7147C144.662 70.0227 143.439 71.7212 143.742 73.5084C144.046 75.2955 145.761 76.4946 147.572 76.1866Z" fill="#F29E38"/>
<path d="M132.984 100.252H117.202C117.202 100.252 119.056 94.7817 123.192 94.0206C130.417 92.6411 132.984 100.252 132.984 100.252Z" fill="#FAD7BD"/>
<path d="M166.355 100.252H177.621C177.621 100.252 174.388 95.3526 171.156 94.6391C165.499 93.4023 166.355 100.252 166.355 100.252Z" fill="#FAD7BD"/>
<path d="M156.039 33.2278C159.034 34.9879 161.506 34.5597 161.506 34.5597L156.134 31.5154L156.039 33.2278Z" fill="#FFECD7"/>
<path d="M139.925 33.3705C136.454 35.749 133.697 35.9868 133.697 35.9868L139.544 31.8483L139.925 33.3705Z" fill="#FFECD7"/>
<path d="M145.154 95.1623C143.632 95.0672 140.685 94.9245 138.689 94.972C137.595 95.0196 136.597 95.8283 136.359 97.0175C136.074 98.5397 135.837 100.3 135.837 100.3H149.194C148.434 98.397 147.673 97.1602 147.15 96.3991C146.675 95.638 145.914 95.2099 145.154 95.1623Z" fill="#FFECD7"/>
<path d="M155.611 95.2099C157.038 95.1147 159.7 94.972 161.553 95.0196C162.599 95.0671 163.645 95.8758 163.978 97.0175C164.453 98.4921 164.928 100.252 164.928 100.252H152.522C152.949 98.397 153.425 97.1602 153.853 96.3991C154.28 95.7331 154.946 95.2574 155.611 95.2099Z" fill="#FFECD7"/>
<path d="M149.764 72.9478C149.764 71.4256 148.528 70.2363 147.007 70.2363C145.486 70.2363 144.203 71.4731 144.203 72.9478C144.203 74.47 145.439 75.6592 146.96 75.6592C148.528 75.6592 149.764 74.47 149.764 72.9478Z" fill="#FFCA45"/>
<path d="M146.532 73.2807C145.819 73.5661 145.154 73.8515 144.488 74.0418C144.583 74.2796 144.773 74.5175 144.963 74.7553C146.77 74.6602 148.386 74.3272 149.717 73.7564C149.812 73.5185 149.86 73.2331 149.86 72.9477C149.86 72.472 149.717 72.0439 149.527 71.6158C148.624 72.2342 147.625 72.805 146.532 73.2807Z" fill="#FFEA80"/>
<path d="M162.314 23.3335L153.092 18.7669C153.092 18.7669 161.221 5.20983 166.355 3.7352C163.883 10.9656 162.504 16.9117 162.314 23.3335Z" fill="#E06332"/>
<path d="M117.25 12.3452L123.287 17.768L126.377 27.5196L136.454 20.86C126.377 11.5841 117.25 12.3452 117.25 12.3452Z" fill="#E06332"/>
<path d="M124.808 15.3895C128.088 17.7204 130.322 20.8599 131.416 24.1897L136.454 20.8599C127.613 12.6781 119.484 12.2976 117.63 12.3451C120.102 12.7733 122.574 13.8198 124.808 15.3895Z" fill="#CC512B"/>
<path d="M159.652 22.0016L162.314 23.3335C162.457 17.2447 163.74 11.5841 165.927 4.87686C163.645 7.92126 161.744 11.917 160.603 16.5312C160.175 18.3864 159.842 20.2416 159.652 22.0016Z" fill="#CC512B"/>
<path d="M136.027 93.4974C131.653 89.026 129.277 86.5048 129.277 86.5048L130.703 86.267L127.755 82.2236L129.086 82.5566L127.09 78.1803L129.419 78.5133L136.027 93.4974Z" fill="#F9A55A"/>
<path d="M162.457 93.0218C165.499 88.5503 167.163 86.0292 167.163 86.0292L165.689 85.7913L167.448 81.748L166.212 82.081L166.782 75.1359L164.786 77.99L162.457 93.0218Z" fill="#F9A55A"/>
<path d="M31.5537 38.7118L34.9026 40.5688L40.9822 37.8349C36.1907 36.8033 31.5537 38.7118 31.5537 38.7118Z" fill="#7C6666"/>
<path d="M27.7927 41.7551L31.3477 42.9931L35.521 38.8666C31.3477 39.0213 27.7927 41.7551 27.7927 41.7551Z" fill="#7C6666"/>
<path d="M24.4954 45.6237L28.2565 46.0364L31.3993 41.033C27.3291 42.1162 24.4954 45.6237 24.4954 45.6237Z" fill="#7C6666"/>
<path d="M23.3103 49.4407L27.0714 49.2344L29.3384 43.8184C25.5258 45.5205 23.3103 49.4407 23.3103 49.4407Z" fill="#7C6666"/>
<path d="M21.7646 54.2894L25.3712 53.2062L26.3501 47.4291C23.0012 50.0081 21.7646 54.2894 21.7646 54.2894Z" fill="#7C6666"/>
<path d="M21.6101 64.2445L24.5983 61.9749L23.4649 56.1978C21.301 59.8085 21.6101 64.2445 21.6101 64.2445Z" fill="#725E5E"/>
<path d="M20.9403 59.6022L24.3923 58.0547L24.5468 52.1745C21.6101 55.1662 20.9403 59.6022 20.9403 59.6022Z" fill="#725E5E"/>
<path d="M117.183 78.842C117.646 78.223 109.764 74.6639 109.764 74.6639C109.764 74.6639 105.693 77.0367 104.251 80.5958L104.611 81.1632C110.382 80.9568 116.204 80.08 117.183 78.842Z" fill="#E5A24A"/>
<path d="M106.106 77.7587C107.754 78.0682 109.661 78.1198 111.721 77.8619C112.906 77.7072 114.04 77.5008 115.07 77.1914C112.855 76.005 109.815 74.6123 109.815 74.6123C109.815 74.6123 107.806 75.8502 106.106 77.7587Z" fill="#EFC867"/>
<path d="M0.125678 75.025C-0.647145 74.3544 3.57766 68.0099 3.57766 68.0099C3.57766 68.0099 8.26613 70.0732 11.5635 74.3029L11.615 75.1282C6.87503 76.1082 1.67133 76.4177 0.125678 75.025Z" fill="#E5A24A"/>
<path d="M3.47456 73.2196C5.84455 73.2196 8.00846 72.8586 9.65715 72.2396C6.72042 69.4026 3.57764 68.0099 3.57764 68.0099C3.57764 68.0099 1.61978 70.9501 0.640869 73.0649C1.51674 73.1681 2.49565 73.2196 3.47456 73.2196Z" fill="#EFC867"/>
<path d="M26.5562 60.4791C21.6617 59.6022 15.9943 65.9983 17.0763 72.6522L26.2986 68.1647C26.2986 68.1647 31.5023 61.3559 26.5562 60.4791Z" fill="#665252"/>
<path d="M82.5087 56.5589C80.86 54.6504 67.3614 42.4257 65.6097 41.4972C62.1062 39.6403 53.9658 41.7035 53.9658 41.7035C50.8229 39.6403 42.2704 36.7517 37.788 37.8349C21.1466 42.013 21.3011 64.2961 24.9591 71.8785L86.8365 69.8153C87.0942 68.1131 84.7757 59.1895 82.5087 56.5589Z" fill="#725E5E"/>
<path d="M82.5085 56.5589C80.8598 54.6504 67.3612 42.4257 65.6094 41.4972C65.2488 41.2909 64.8366 41.1362 64.3729 41.033C64.682 42.2709 52.832 47.3775 52.832 48.7186C52.832 60.5822 51.3379 66.4109 34.6965 66.4109C30.5748 66.4109 26.6591 65.8435 23.1041 64.7603C23.4133 67.6489 24.083 70.1248 24.9074 71.8785L86.7848 69.8153C87.0939 68.1131 84.7754 59.1896 82.5085 56.5589Z" fill="#665252"/>
<path d="M47.0619 69.2479C47.0619 60.5822 40.8793 53.722 40.8793 53.722C40.8793 53.722 43.9706 61.7686 40.8793 70.7437L47.0619 69.2479Z" fill="#665252"/>
<path d="M48.9166 41.8583C49.2772 41.1878 49.6379 40.4656 49.947 39.7435C46.0829 38.2476 40.9307 37.0613 37.7364 37.835C29.3899 39.9498 25.2682 46.6038 23.671 53.6704C31.9145 57.7969 43.0947 52.5872 48.9166 41.8583Z" fill="#7C6666"/>
<path d="M54.2749 53.9283C51.1321 61.5623 51.8018 66.6688 52.5746 68.9384C53.3475 71.2079 64.9398 70.4858 64.9398 70.4858L67.3098 63.1097C67.3098 63.1097 64.6822 61.8202 59.8907 62.3876C59.8392 62.3876 56.2327 49.1828 54.2749 53.9283Z" fill="#725E5E"/>
<path d="M62.7243 62.2844C58.0874 63.2644 54.79 66.153 54.79 69.5058C54.79 69.7121 54.79 69.97 54.8415 70.1763C58.4481 70.95 64.9398 70.5374 64.9398 70.5374L67.3097 63.1613C67.2582 63.1097 65.661 62.336 62.7243 62.2844Z" fill="#7C6666"/>
<path d="M17.0247 71.3111C16.7671 65.4824 39.5912 59.6538 45.1555 67.3394C49.5348 73.426 27.0715 75.6439 19.0341 74.3544C16.8187 73.9933 17.0763 72.0848 17.0247 71.3111Z" fill="#7C6666"/>
<path d="M25.0106 65.2245C23.8257 66.153 23.1559 67.2362 23.1559 68.371C23.1559 71.208 27.2261 73.5807 32.7904 74.1997C40.6732 73.2712 47.8347 71.0016 45.1556 67.3394C41.8067 62.6455 32.1206 62.955 25.0106 65.2245Z" fill="#8C7474"/>
<path d="M96.7801 100.3H25.938C25.938 100.3 7.18408 89.5709 9.6056 73.8386C9.6056 73.8386 51.4412 61.6655 65.0944 68.6805C65.0944 68.6805 89.7732 64.8119 105.796 79.7704C107.239 87.3013 103.066 93.491 96.7801 100.3Z" fill="#EFC867"/>
<path d="M29.2869 69.1447C38.4062 69.6605 50.9259 69.6605 67.1037 72.2395C77.6656 73.8901 85.0332 73.3227 92.2462 71.6206C78.6445 66.5656 65.0428 68.732 65.0428 68.732C57.6752 64.8634 42.0642 66.6688 29.2869 69.1447Z" fill="#E5A24A"/>
<path d="M64.2185 87.0434C39.5396 87.0434 18.4158 81.5758 9.6571 73.787C9.60558 73.787 9.55408 73.8386 9.55408 73.8386C7.13257 89.5709 25.8864 100.3 25.8864 100.3H96.7286C102.705 93.8005 106.827 87.9203 105.899 80.8021C95.2345 84.6707 80.4993 87.0434 64.2185 87.0434Z" fill="#E5A24A"/>
<path d="M79.4689 32.9347L91.2158 39.1245C92.916 36.0296 93.1221 27.106 93.1221 27.106C93.1221 27.106 83.5391 27.725 79.4689 32.9347Z" fill="#AF9797"/>
<path d="M53.8626 26.0745C53.8626 26.0745 52.0079 31.9547 55.3568 40.6719L67.4128 33.2442C61.4878 27.6219 53.8626 26.0745 53.8626 26.0745Z" fill="#AF9797"/>
<path d="M80.8085 32.9347C84.3119 35.2559 88.5367 35.8233 90.6491 37.4739C90.6491 37.4739 92.0401 33.399 91.7825 28.963C87.1971 28.9114 82.9724 30.8715 80.8085 32.9347Z" fill="#564141"/>
<path d="M81.4781 33.0379C84.5694 35.0496 88.279 35.5654 90.1338 37.0097C90.1338 37.0097 91.3703 33.399 91.1127 29.4788C87.094 29.4788 83.3844 31.181 81.4781 33.0379Z" fill="#E06161"/>
<path d="M86.5789 35.359C88.0215 35.8749 89.258 36.3391 90.1339 37.0096C90.1339 37.0096 91.2673 33.5537 91.1128 29.7883C90.34 31.6968 88.7428 33.7084 86.5789 35.359Z" fill="#BA4F4F"/>
<path d="M65.0429 32.5737C61.1272 34.018 58.242 36.4938 56.0266 38.0413C56.0266 38.0413 54.1203 31.5936 54.7901 27.8282C58.8603 28.8083 62.7759 30.6652 65.0429 32.5737Z" fill="#564141"/>
<path d="M64.5275 32.9347C61.0756 34.2759 58.551 36.5454 56.5932 37.9897C56.5932 37.9897 54.9445 32.1094 55.5628 28.6019C59.1693 29.5304 62.5697 31.2326 64.5275 32.9347Z" fill="#E06161"/>
<path d="M56.1813 28.8083C58.1391 29.7883 59.8908 32.0063 60.8182 34.8948C61.9002 34.1727 63.1367 33.5021 64.5277 32.9348C62.673 31.3357 59.5302 29.6851 56.1813 28.8083Z" fill="#BA4F4F"/>
<path d="M78.9536 27.7766C78.9536 27.7766 77.9232 29.4788 76.5321 30.0978C76.2745 28.7051 75.4501 27.4156 75.4501 27.4156C75.4501 27.4156 75.0895 28.602 73.6469 29.4273C73.1317 28.0861 72.1528 27.0545 72.1528 27.0545C72.1528 27.0545 72.1012 28.2409 71.1738 29.4788C70.401 27.9314 68.9069 27.0029 68.9069 27.0029C68.9069 27.0029 69.2675 28.5504 68.6493 30.4073C67.928 28.7051 66.2793 27.6735 66.2793 27.6735C66.2793 27.6735 66.8461 30.1494 65.3519 32.6769C66.4854 32.8316 78.799 32.8832 79.984 32.9348C80.2416 30.1494 78.9536 27.7766 78.9536 27.7766Z" fill="#8C7474"/>
<path d="M93.6373 44.5405L97.0893 45.6237C97.0893 45.6237 94.3071 42.7868 92.8645 41.8067L94.4102 41.3425C94.4102 41.3425 93.3798 39.7435 90.9582 38.7634L92.4524 38.0929C92.4524 38.0929 88.8458 35.2559 84.3635 34.2759C84.3635 34.2759 72.3589 27.4672 60.8696 34.4306L55.9236 37.9897C52.9868 39.4856 49.844 44.2826 49.844 44.2826L51.6473 44.7468C51.6473 44.7468 48.3499 47.7901 47.7831 48.8733L49.5349 49.3891C49.5349 49.3891 46.2375 53.0514 45.5677 54.1862L52.214 53.4641L50.0501 58.4158C50.0501 58.4158 55.2538 57.9516 57.8298 56.4558L57.0055 58.8801C57.0055 58.8801 59.6331 58.8285 61.2818 57.7969L61.4879 60.737C61.4879 60.737 64.7338 60.5307 66.4855 59.138C66.4855 59.138 66.9492 61.2528 67.3098 62.2329C67.3098 62.2329 69.4222 61.4076 70.8648 60.0149L74.0076 62.9034C74.0076 62.9034 75.7078 61.3044 76.3261 59.9117C76.3261 59.9117 78.2324 62.5939 80.1387 63.4192C80.1387 63.4192 81.6844 61.4591 81.942 60.0149L84.1058 62.9034C84.1058 62.9034 86.4759 60.1696 86.5789 58.8285L88.8974 61.8202C88.8974 61.8202 89.5156 59.138 89.3611 57.8485L93.1737 61.2012C93.1737 61.2012 93.0191 58.5706 92.6585 57.4358L96.6771 59.4991C96.6771 59.4991 95.3376 53.8767 94.8224 52.6388L97.2954 54.1346C97.2954 54.1346 97.0893 51.2977 96.0589 49.8018L98.0682 50.7303C98.0167 50.6271 94.9254 46.0364 93.6373 44.5405Z" fill="#8C7474"/>
<path d="M59.1179 51.4008C69.8859 48.1512 76.7899 39.2276 74.4199 31.4905C74.4199 31.4389 74.3684 31.3873 74.3684 31.3357C70.3497 30.9746 65.5581 31.542 60.8697 34.379L55.9236 37.9381C52.9869 39.434 49.8441 44.231 49.8441 44.231L51.6473 44.6952C51.6473 44.6952 48.3499 47.7385 47.7832 48.8217L49.5349 49.3375C49.5349 49.3375 48.1439 50.885 46.9589 52.2777C50.6684 52.8966 54.8416 52.6903 59.1179 51.4008Z" fill="#7C6666"/>
<path d="M97.1923 53.5156C97.0893 52.6387 96.7802 50.7818 96.0073 49.6986L98.0166 50.6271C98.0166 50.6271 94.9769 46.0879 93.6373 44.5405L97.0893 45.6237C97.0893 45.6237 94.3071 42.7867 92.8645 41.8067L94.4101 41.3425C94.4101 41.3425 93.3797 39.7435 90.9582 38.7634L92.4523 38.0929C92.4523 38.0929 89.1035 34.998 84.6726 33.8116C83.0239 33.3474 81.8389 32.8832 78.0263 32.0063C77.7172 32.6253 77.5111 33.2958 77.3565 33.9664C75.4502 41.8583 82.8178 50.3692 93.7919 52.9998C94.2041 53.103 94.6163 53.2061 95.0284 53.2577C94.9254 52.9998 94.8738 52.7419 94.8223 52.5872L96.265 53.4641C96.5226 53.4125 96.8317 53.464 97.1923 53.5156Z" fill="#7C6666"/>
<path d="M80.8086 71.9817C80.448 75.1282 81.1692 78.5841 87.1972 78.6873C93.2253 78.7904 92.607 73.2197 91.6281 71.5175C90.2886 69.2479 81.0662 68.7321 80.8086 71.9817Z" fill="#E5A24A"/>
<path d="M81.8388 69.5058C81.0144 73.2196 81.6842 77.2945 87.4546 77.1914C93.225 77.0882 91.2157 68.8352 90.0822 66.772C87.9699 62.8518 83.3844 62.7486 81.8388 69.5058Z" fill="#8C7474"/>
<path d="M86.8879 71.7238C85.2907 71.7238 82.1479 70.8469 81.8388 69.4542V69.5058C81.0144 73.2197 81.6842 77.2946 87.4546 77.1914C92.2461 77.0883 91.6794 71.4659 90.7005 68.3195C91.2672 70.7954 88.8972 71.7238 86.8879 71.7238Z" fill="#FFEFDD"/>
<path d="M61.5908 71.2596C61.3332 74.6123 61.4877 78.2746 68.134 78.3262C74.7803 78.4293 72.7195 71.1564 71.5345 69.2995C69.216 65.8951 62.003 65.2762 61.5908 71.2596Z" fill="#E5A24A"/>
<path d="M34.9028 70.1764C34.3876 74.2513 32.842 81.1632 41.6522 81.9369C49.2258 82.6074 48.5045 71.827 47.2165 69.609C44.8465 65.4309 35.1089 68.5774 34.9028 70.1764Z" fill="#E5A24A"/>
<path d="M62.3121 68.4742C62.3636 72.6522 62.7758 77.1914 68.134 77.3461C73.5438 77.4493 71.3284 68.371 70.2465 66.1014C68.1341 61.7686 62.2091 60.9949 62.3121 68.4742Z" fill="#8C7474"/>
<path d="M68.6494 70.6922C66.3824 71.5175 63.8064 70.3827 62.3123 68.1131C62.3123 68.2163 62.3123 68.3194 62.3123 68.4226C62.3638 72.6007 62.7759 77.1398 68.1342 77.2945C72.2559 77.3977 71.9468 72.188 71.0709 68.6289C70.5557 69.609 69.6798 70.3311 68.6494 70.6922Z" fill="#FFEFDD"/>
<path d="M41.9613 64.915L36.1908 67.3909C39.179 71.6206 34.336 78.3777 40.2095 80.1315C47.9377 82.4526 49.9471 68.2678 41.9613 64.915Z" fill="#8C7474"/>
<path d="M67.1553 44.9016C65.0429 48.1512 66.7431 51.4008 69.2162 51.4008C71.6892 51.4008 76.3262 46.9133 76.4292 45.9848C76.4807 45.7785 75.7079 44.6437 74.9351 44.3858C72.5651 43.6636 67.722 44.0247 67.1553 44.9016Z" fill="#FFEFDD"/>
<path d="M70.2466 49.7502C68.1342 49.7502 66.537 47.3775 67.4644 44.6437C67.3099 44.7468 67.2068 44.7984 67.1553 44.9016C65.0429 48.1512 66.7431 51.4008 69.2162 51.4008C71.6892 51.4008 76.3262 46.9133 76.4292 45.9848C76.4292 45.9332 76.4291 45.8816 76.3776 45.83C74.8835 47.4806 71.9983 49.7502 70.2466 49.7502Z" fill="#DBBA9A"/>
<path d="M82.7148 50.8334C79.8296 51.4524 75.5018 48.1512 74.4714 44.85C74.0077 43.4057 84.8272 44.6952 85.5485 45.7785C86.2183 46.8617 83.8998 50.5755 82.7148 50.8334Z" fill="#FFEFDD"/>
<path d="M85.4969 45.7785C85.4454 45.6753 85.2393 45.5722 85.0332 45.469C84.8786 46.9648 83.0754 49.5439 82.0965 49.8018C79.7265 50.3176 76.3776 48.1512 74.6774 45.5206C76.0685 48.6154 80.0356 51.504 82.7147 50.885C83.8997 50.5755 86.2182 46.8617 85.4969 45.7785Z" fill="#DBBA9A"/>
<path d="M75.8109 47.3259C74.935 47.068 73.5439 44.4889 73.4924 44.1794C73.4409 43.8184 75.2442 43.5605 75.9655 43.5605C76.6868 43.5605 78.2324 43.6636 78.2839 44.231C78.3355 45.469 75.8109 47.3259 75.8109 47.3259Z" fill="#D85D5D"/>
<path d="M66.8461 42.993C65.6611 42.9415 64.3731 42.6836 63.3427 41.9614C63.1881 41.8583 63.1366 41.6519 63.2396 41.5488C63.3427 41.394 63.5488 41.394 63.6518 41.4456C65.9703 43.0446 69.6283 42.1162 70.0405 41.7551C70.1951 41.6519 70.3497 41.6519 70.5042 41.8067C70.6073 41.9614 70.6072 42.1162 70.4527 42.2709C70.092 42.5804 68.5464 43.0446 66.8461 42.993Z" fill="#564141"/>
<path d="M85.497 43.7668C84.1575 43.7152 82.6118 43.4057 81.4268 42.3741C81.2722 42.2709 81.2722 42.0646 81.3753 41.9098C81.4783 41.7551 81.6844 41.7551 81.839 41.8583C83.7968 43.5605 87.3003 43.0962 87.764 42.7867C87.9185 42.6836 88.1246 42.7352 88.2276 42.8383C88.3307 42.9931 88.2792 43.1994 88.1761 43.251C87.8155 43.5604 86.7335 43.7668 85.497 43.7668Z" fill="#564141"/>
<path d="M98.6865 98.1332C90.443 97.5143 81.0661 97.1532 71.0709 97.1532C52.9353 97.1532 36.706 98.3396 25.7834 100.196C25.8865 100.248 25.938 100.3 25.938 100.3H96.7802C97.45 99.5775 98.0682 98.8554 98.6865 98.1332Z" fill="#E5753C"/>
<path d="M75.8107 46.6553C75.1409 46.449 74.0075 44.4373 73.9559 44.1279C73.9044 43.87 75.347 43.6636 75.9138 43.6636C76.429 43.6636 77.717 43.7668 77.717 44.1794C77.8201 45.2111 75.8107 46.6553 75.8107 46.6553Z" fill="#EF7878"/>
<path d="M75.0896 46.1911C75.2442 45.5721 75.2958 45.0563 75.1927 44.7984C75.0897 44.5405 74.0592 44.6437 74.0592 44.6437C74.2653 45.2111 74.5744 45.7785 75.0896 46.1911Z" fill="#D85D5D"/>
<path d="M76.5836 46.3458C76.4291 45.7269 76.4806 45.1595 76.5836 44.9531C76.6867 44.7468 77.7171 44.85 77.7171 44.85C77.5111 45.4689 77.1504 45.9848 76.5836 46.3458Z" fill="#D85D5D"/>
<path d="M73.3378 50.1113C74.1621 51.9166 76.7382 52.0198 77.8201 50.0597C76.2745 50.7302 74.7804 50.7818 73.3378 50.1113Z" fill="#665252"/>
<path d="M57.7782 56.3526L56.9539 58.7769C56.9539 58.7769 57.0054 58.7769 57.1085 58.7769L59.3239 55.4241C56.8508 55.7852 51.8017 56.8684 51.8017 56.8684L53.708 52.4324L47.0618 53.1546C47.7315 52.0198 51.2865 48.7186 51.2865 48.7186L49.2772 48.0996C49.7924 47.068 53.1928 44.1794 53.1928 44.1794L51.338 43.3026C51.338 43.3026 52.1624 41.652 53.3474 39.8982C51.3895 41.8583 49.7924 44.2826 49.7924 44.2826L51.5956 44.7468C51.5956 44.7468 48.2982 47.7901 47.7315 48.8733L49.4832 49.3891C49.4832 49.3891 46.1859 53.0514 45.5161 54.1862L52.1623 53.4641L49.9985 58.4158C49.9985 58.3127 55.2021 57.8484 57.7782 56.3526Z" fill="#A58888"/>
<path d="M93.9463 44.9016L93.3795 44.7468C94.6676 46.2427 96.3678 51.865 96.3678 51.865L93.7917 51.1429C94.307 52.3293 95.2859 56.8684 95.2859 56.8684L91.7309 55.0115C91.8854 56.301 91.8339 58.519 91.8339 58.519L89.0518 55.9915C89.1548 56.7652 88.8457 59.6538 88.8972 61.5107C89.0002 60.9949 89.4639 58.7769 89.3609 57.6421L93.1735 60.9949C93.1735 60.9949 93.0189 58.3643 92.6583 57.2295L96.6769 59.2927C96.6769 59.2927 95.3374 53.6704 94.8222 52.4324L97.2952 53.9283C97.2952 53.9283 97.0891 51.0913 96.0587 49.5955L98.0681 50.5239C98.0165 50.6271 95.3889 46.7069 93.9463 44.9016Z" fill="#A58888"/>
<path d="M61.9516 52.1745C59.8907 52.6388 56.5934 53.2577 56.5934 53.2577L59.9938 48.3575L58.4481 52.2777L61.9516 52.1745Z" fill="#A58888"/>
<path d="M57.6238 47.7385C55.872 47.7385 53.1414 47.6354 53.1414 47.6354L56.7994 44.2826L54.8416 47.1711L57.6238 47.7385Z" fill="#A58888"/>
<path d="M86.0636 52.484C87.6092 52.8451 90.0307 53.3093 90.0307 53.3093L87.5062 49.4923L88.6397 52.484H86.0636Z" fill="#A58888"/>
<path d="M79.9326 54.5988C81.0146 55.6304 82.7663 57.1263 82.7663 57.1263L83.3846 53.2577L82.1481 55.8883L79.9326 54.5988Z" fill="#7C6666"/>
<path d="M71.4315 54.4957C72.0498 55.8368 73.1318 57.9 73.1318 57.9L75.1411 54.5472L72.9772 56.5073L71.4315 54.4957Z" fill="#7C6666"/>
<path d="M65.3004 52.0198C65.0943 53.464 64.8368 55.7852 64.8368 55.7852L68.3402 54.1346L65.455 54.5988L65.3004 52.0198Z" fill="#7C6666"/>
<path d="M59.1694 39.6919C58.0359 40.6204 56.3357 42.2194 56.3357 42.2194L60.0967 43.3026L57.6237 41.7551L59.1694 39.6919Z" fill="#A58888"/>
<path d="M89.0519 48.667C90.3399 48.9249 92.3492 49.2344 92.3492 49.2344L90.2368 46.1395L91.2158 48.6154L89.0519 48.667Z" fill="#A58888"/>
<path d="M93.0191 59.8601L89.258 56.5589C89.4125 57.8484 88.7943 60.5306 88.7943 60.5306L86.4759 57.5389C86.3728 58.8801 84.0028 61.6139 84.0028 61.6139L81.8389 58.7253C81.5813 60.2212 80.0357 62.1297 80.0357 62.1297C78.1294 61.3044 76.2231 58.6222 76.2231 58.6222C75.6048 60.0148 73.9046 61.6139 73.9046 61.6139L70.7618 58.7253C69.3707 60.118 67.2068 60.9433 67.2068 60.9433C66.8461 59.9633 66.3824 57.8484 66.3824 57.8484C64.6307 59.2411 61.3848 59.4474 61.3848 59.4474L61.1787 56.5073C59.8907 57.281 58.0874 57.4874 57.3146 57.5389L56.9025 58.6737C56.9025 58.6737 59.53 58.6222 61.1787 57.5905L61.3848 60.5306C61.3848 60.5306 64.6307 60.3243 66.3824 58.9316C66.3824 58.9316 66.8461 61.0465 67.2068 62.0265C67.2068 62.0265 69.3192 61.2012 70.7618 59.8085L73.9046 62.6971C73.9046 62.6971 75.6048 61.098 76.2231 59.7053C76.2231 59.7053 78.1294 62.3876 80.0357 63.2129C80.0357 63.2129 81.5813 61.2528 81.8389 59.8085L84.0028 62.6971C84.0028 62.6971 86.3728 59.9633 86.4759 58.6222L88.7943 61.6139C88.7943 61.6139 89.4125 58.9316 89.5156 58.0548L93.3282 61.4075C93.3282 61.5107 93.0706 60.5307 93.0191 59.8601Z" fill="#A58888"/>
<path d="M88.5881 40.7751C83.8481 41.3941 80.8599 39.6403 80.8599 39.6403L81.6842 38.2476C83.2814 39.3308 85.6514 40.1561 88.5881 40.7751Z" fill="#A58888"/>
<path d="M62.9819 39.3824C67.4128 40.414 70.3495 38.9182 70.3495 38.9182L69.7313 37.4739C68.1341 38.4024 65.7641 39.0213 62.9819 39.3824Z" fill="#A58888"/>
<path d="M57.8813 90.4478C73.0802 95.2448 88.2275 91.7373 96.471 86.476C81.9419 90.293 69.4222 91.1183 57.8813 90.4478Z" fill="#EFC867"/>
</svg>
